# Blender v3.2.2 OBJ File: 'soccer_save.blend'
# www.blender.org
mtllib benches.mtl
o Cube
v -1.000000 -1.000000 -60.000000
v -1.000000 1.000000 -60.000000
v -1.000000 -1.000000 -62.000000
v -1.000000 1.000000 -62.000000
v 158.221832 -1.000000 -63.221825
v 158.221832 1.000000 -63.221825
v 159.636032 -1.000000 -64.636040
v 159.636032 1.000000 -64.636040
v -1.000000 18.000000 -91.000000
v -1.000000 -1.000000 -91.000000
v 180.142136 -1.000000 -85.142136
v 180.142136 18.000000 -85.142136
v 170.435059 1.000000 -57.565010
v 170.435059 -1.000000 -57.565010
v 168.435059 -1.000000 -57.564999
v 168.435059 1.000000 -57.564999
v 199.435059 18.000000 -57.565002
v 199.435059 -1.000000 -57.565002
v 170.435211 1.000000 0.000000
v 170.435211 -1.000000 0.000000
v 168.435211 -1.000000 0.000000
v 168.435211 1.000000 0.000000
v 199.435211 18.000000 0.000000
v 199.435211 -1.000000 0.000000
v -1.000000 -1.000000 60.000000
v -1.000000 1.000000 60.000000
v -1.000000 -1.000000 62.000000
v -1.000000 1.000000 62.000000
v 158.221832 -1.000000 63.221825
v 158.221832 1.000000 63.221825
v 159.636032 -1.000000 64.636040
v 159.636032 1.000000 64.636040
v -1.000000 18.000000 91.000000
v -1.000000 -1.000000 91.000000
v 180.142136 -1.000000 85.142136
v 180.142136 18.000000 85.142136
v 170.435059 1.000000 57.565010
v 170.435059 -1.000000 57.565010
v 168.435059 -1.000000 57.564999
v 168.435059 1.000000 57.564999
v 199.435059 18.000000 57.565002
v 199.435059 -1.000000 57.565002
vt 0.375000 0.000000
vt 0.625000 0.000000
vt 0.625000 0.250000
vt 0.375000 0.250000
vt 0.875000 0.500000
vt 0.625000 0.500000
vt 0.625000 0.500000
vt 0.875000 0.500000
vt 0.375000 0.500000
vt 0.375000 0.500000
vt 0.375000 0.500000
vt 0.375000 0.500000
vt 0.375000 0.750000
vt 0.625000 0.750000
vt 0.625000 1.000000
vt 0.375000 1.000000
vt 0.125000 0.500000
vt 0.125000 0.750000
vt 0.875000 0.750000
vt 0.375000 0.250000
vt 0.625000 0.250000
vt 0.625000 0.500000
vt 0.625000 0.500000
vt 0.125000 0.500000
vt 0.625000 0.750000
vt 0.625000 0.750000
vt 0.625000 0.500000
vt 0.625000 0.500000
vt 0.375000 0.500000
vt 0.375000 0.750000
vt 0.375000 0.500000
vt 0.375000 0.750000
vt 0.375000 0.000000
vt 0.375000 0.250000
vt 0.625000 0.250000
vt 0.625000 0.000000
vt 0.875000 0.500000
vt 0.875000 0.500000
vt 0.625000 0.500000
vt 0.625000 0.500000
vt 0.375000 0.500000
vt 0.375000 0.500000
vt 0.375000 0.500000
vt 0.375000 0.500000
vt 0.375000 0.750000
vt 0.375000 1.000000
vt 0.625000 1.000000
vt 0.625000 0.750000
vt 0.125000 0.500000
vt 0.125000 0.750000
vt 0.875000 0.750000
vt 0.375000 0.250000
vt 0.625000 0.250000
vt 0.625000 0.500000
vt 0.625000 0.500000
vt 0.125000 0.500000
vt 0.625000 0.750000
vt 0.375000 0.750000
vn -1.0000 0.0000 0.0000
vn -0.0053 0.8253 0.5646
vn 0.0000 -1.0000 0.0000
vn 0.0202 0.0000 0.9998
vn 0.0000 1.0000 0.0000
vn 0.0323 0.0000 -0.9995
vn -0.4198 0.8312 0.3646
vn 1.0000 0.0000 -0.0000
vn 0.8194 0.0000 -0.5732
vn -0.4845 0.0000 0.8748
vn 0.0000 0.0000 1.0000
vn -0.5057 0.8627 0.0000
vn -0.0053 0.8253 -0.5646
vn 0.0202 0.0000 -0.9998
vn 0.0323 0.0000 0.9995
vn -0.4198 0.8312 -0.3646
vn 0.8194 0.0000 0.5732
vn -0.4845 0.0000 -0.8748
usemtl None
s off
f 1/1/1 2/2/1 4/3/1 3/4/1
f 4/5/2 8/6/2 12/7/2 9/8/2
f 7/9/3 11/10/3 18/11/3 14/12/3
f 5/13/4 6/14/4 2/15/4 1/16/4
f 3/17/3 7/9/3 5/13/3 1/18/3
f 8/6/5 4/5/5 2/19/5 6/14/5
f 10/20/6 9/21/6 12/7/6 11/10/6
f 3/4/1 4/3/1 9/21/1 10/20/1
f 12/7/7 8/6/7 13/22/7 17/23/7
f 7/9/3 3/17/3 10/24/3 11/10/3
f 13/22/5 16/25/5 22/26/5 19/27/5
f 18/11/8 17/23/8 23/28/8 24/29/8
f 8/6/5 6/14/5 16/25/5 13/22/5
f 11/10/9 12/7/9 17/23/9 18/11/9
f 6/14/10 5/13/10 15/30/10 16/25/10
f 5/13/3 7/9/3 14/12/3 15/30/3
f 20/31/11 19/27/11 22/26/11 21/32/11
f 19/27/11 20/31/11 24/29/11 23/28/11
f 17/23/12 13/22/12 19/27/12 23/28/12
f 16/25/1 15/30/1 21/32/1 22/26/1
f 15/30/3 14/12/3 20/31/3 21/32/3
f 14/12/3 18/11/3 24/29/3 20/31/3
f 25/33/1 27/34/1 28/35/1 26/36/1
f 28/37/13 33/38/13 36/39/13 32/40/13
f 31/41/3 38/42/3 42/43/3 35/44/3
f 29/45/14 25/46/14 26/47/14 30/48/14
f 27/49/3 25/50/3 29/45/3 31/41/3
f 32/40/5 30/48/5 26/51/5 28/37/5
f 34/52/15 35/44/15 36/39/15 33/53/15
f 27/34/1 34/52/1 33/53/1 28/35/1
f 36/39/16 41/54/16 37/55/16 32/40/16
f 31/41/3 35/44/3 34/56/3 27/49/3
f 37/55/5 19/27/5 22/26/5 40/57/5
f 42/43/8 24/29/8 23/28/8 41/54/8
f 32/40/5 37/55/5 40/57/5 30/48/5
f 35/44/17 42/43/17 41/54/17 36/39/17
f 30/48/18 40/57/18 39/58/18 29/45/18
f 29/45/3 39/58/3 38/42/3 31/41/3
f 41/54/12 23/28/12 19/27/12 37/55/12
f 40/57/1 22/26/1 21/32/1 39/58/1
f 39/58/3 21/32/3 20/31/3 38/42/3
f 38/42/3 20/31/3 24/29/3 42/43/3
