# Blender v3.2.2 OBJ File: 'soccer_save.blend'
# www.blender.org
mtllib goal.mtl
o goal_Cube.001
v -2.000000 0.000000 -8.000000
v -2.000000 6.000000 -8.000000
v 0.000000 0.000000 -8.000000
v 0.000000 6.000000 -8.000000
v -2.000000 6.000000 0.000000
v 0.000000 6.000000 0.000000
v -2.000000 6.200000 0.000000
v -2.000000 6.200000 -8.333334
v -2.000000 0.000000 -8.333334
v 0.000000 0.000000 -8.333334
v 0.000000 6.200000 -8.333334
v 0.000000 6.200000 0.000000
v -2.000000 0.000000 8.000000
v -2.000000 6.000000 8.000000
v 0.000000 0.000000 8.000000
v 0.000000 6.000000 8.000000
v -2.000000 6.200000 8.333334
v -2.000000 0.000000 8.333334
v 0.000000 0.000000 8.333334
v 0.000000 6.200000 8.333334
vt 0.000000 0.000000
vt 0.000000 0.000000
vt 0.000000 0.000000
vt 0.000000 0.000000
vt 0.000000 0.000000
vt 0.000000 0.000000
vt 0.375000 0.250000
vt 0.625000 0.250000
vt 0.625000 0.500000
vt 0.375000 0.500000
vt 0.875000 0.500000
vt 0.875000 0.625000
vt 0.625000 0.625000
vt 0.000000 0.000000
vt 0.000000 0.000000
vt 0.625000 0.625000
vt 0.625000 0.500000
vt 0.375000 0.500000
vt 0.000000 0.000000
vt 0.000000 0.000000
vt 0.000000 0.000000
vt 0.000000 0.000000
vt 0.000000 0.000000
vt 0.375000 0.250000
vt 0.375000 0.500000
vt 0.625000 0.500000
vt 0.625000 0.250000
vt 0.875000 0.500000
vt 0.000000 0.000000
vt 0.000000 0.000000
vt 0.625000 0.500000
vt 0.375000 0.500000
vt 0.000000 0.000000
vt 0.000000 0.000000
vt 0.000000 0.000000
vn 0.0000 0.0000 1.0000
vn -1.0000 0.0000 0.0000
vn 0.0000 0.0000 -1.0000
vn 0.0000 1.0000 0.0000
vn 1.0000 0.0000 0.0000
vn 0.0000 -1.0000 0.0000
usemtl None
s off
f 5/1/1 6/2/1 12/3/1 7/4/1
f 2/5/2 5/1/2 7/4/2 8/6/2
f 9/7/3 8/8/3 11/9/3 10/10/3
f 11/9/4 8/11/4 7/12/4 12/13/4
f 1/14/2 2/5/2 8/6/2 9/15/2
f 6/16/5 4/17/5 11/9/5 12/13/5
f 4/17/5 3/18/5 10/10/5 11/9/5
f 3/19/6 1/14/6 9/15/6 10/20/6
f 6/2/6 5/1/6 2/5/6 4/21/6
f 4/21/1 2/5/1 1/14/1 3/19/1
f 14/22/2 17/23/2 7/4/2 5/1/2
f 18/24/1 19/25/1 20/26/1 17/27/1
f 20/26/4 12/13/4 7/12/4 17/28/4
f 13/29/2 18/30/2 17/23/2 14/22/2
f 6/16/5 12/13/5 20/26/5 16/31/5
f 16/31/5 20/26/5 19/25/5 15/32/5
f 15/33/6 19/34/6 18/30/6 13/29/6
f 6/2/6 16/35/6 14/22/6 5/1/6
f 16/35/3 15/33/3 13/29/3 14/22/3
